<svg xmlns="http://www.w3.org/2000/svg" viewBox="0 0 160 200" x="0px" y="0px"><path d="M155,140h-5V20h5c2.76,0,5-2.24,5-5s-2.24-5-5-5H60V5c0-2.76-2.24-5-5-5H5C2.24,0,0,2.24,0,5V154.9c0,2.76,2.24,5,5,5h30c2.76,0,5-2.24,5-5v-4.9h115c2.76,0,5-2.24,5-5s-2.24-5-5-5ZM60,35v-15h80V88.42c-.78-.57-1.55-1.27-2.44-2.1-2.89-2.67-6.85-6.33-14.22-6.33s-11.33,3.66-14.22,6.33c-2.48,2.29-3.98,3.67-7.44,3.67s-4.96-1.38-7.44-3.67c-2.89-2.67-6.85-6.33-14.22-6.33s-11.33,3.66-14.23,6.33c-2.48,2.29-3.98,3.67-7.44,3.67s-4.96-1.38-7.44-3.67c-2.89-2.67-6.85-6.33-14.23-6.33-.04,0-.07,0-.11,0,14.16-9.96,23.44-26.41,23.44-45ZM10,10H50v25c0,23.12-17.53,42.23-40,44.72V10ZM30,149.9H10v-59.4c11.4,2.32,20,12.42,20,24.5v34.9Zm3.7-54.9c-.76-1.08-1.57-2.12-2.44-3.11,1.52-1.2,2.98-1.89,5.41-1.89,3.46,0,4.96,1.38,7.44,3.67,.46,.42,.95,.87,1.47,1.33,2.77,2.41,6.55,5,12.76,5s9.99-2.59,12.76-5c.52-.45,1.01-.9,1.47-1.33,2.48-2.29,3.98-3.67,7.44-3.67s4.96,1.38,7.44,3.67c.46,.42,.95,.87,1.47,1.33,2.77,2.41,6.55,5,12.76,5s9.99-2.59,12.75-5c.52-.45,1.01-.9,1.47-1.33,2.48-2.29,3.98-3.67,7.44-3.67s4.96,1.38,7.44,3.67c.46,.42,.95,.87,1.47,1.33,1.93,1.68,4.36,3.45,7.76,4.36v19.06c-.78-.57-1.55-1.27-2.44-2.1-2.89-2.67-6.85-6.33-14.22-6.33s-11.33,3.66-14.22,6.33c-2.48,2.29-3.98,3.67-7.44,3.67s-4.96-1.38-7.44-3.67c-2.89-2.67-6.85-6.33-14.22-6.33s-11.33,3.66-14.23,6.33c-2.48,2.29-3.98,3.67-7.44,3.67s-4.96-1.38-7.44-3.67c-2.47-2.28-5.73-5.28-11.23-6.1-.77-5.6-2.87-10.79-5.97-15.22Zm6.3,30v-4.39c1.45,.61,2.6,1.67,4.11,3.06,.46,.42,.95,.87,1.47,1.33,2.77,2.41,6.55,5,12.76,5s9.99-2.59,12.76-5c.52-.45,1.01-.9,1.47-1.33,2.48-2.29,3.98-3.67,7.44-3.67s4.96,1.38,7.44,3.67c.46,.42,.95,.87,1.47,1.33,2.77,2.41,6.55,5,12.76,5s9.99-2.59,12.75-5c.52-.45,1.01-.9,1.47-1.33,2.48-2.29,3.98-3.67,7.44-3.67s4.96,1.38,7.44,3.67c.46,.42,.95,.87,1.47,1.33,1.93,1.68,4.36,3.45,7.76,4.36v10.64H40v-15Zm70-55c11.03,0,20-8.97,20-20s-8.97-20-20-20-20,8.97-20,20,8.97,20,20,20Zm0-30c5.51,0,10,4.49,10,10s-4.49,10-10,10-10-4.49-10-10,4.49-10,10-10Z"/><text x="0" y="175" fill="#000000" font-size="5px" font-weight="bold" font-family="'Helvetica Neue', Helvetica, Arial-Unicode, Arial, Sans-serif">Created by Ilusteo</text><text x="0" y="180" fill="#000000" font-size="5px" font-weight="bold" font-family="'Helvetica Neue', Helvetica, Arial-Unicode, Arial, Sans-serif">from the Noun Project</text></svg>