<svg xmlns="http://www.w3.org/2000/svg" xmlns:xlink="http://www.w3.org/1999/xlink" xmlns:serif="http://www.serif.com/" viewBox="0 0 32 40" version="1.1" xml:space="preserve" style="" x="0px" y="0px" fill-rule="evenodd" clip-rule="evenodd" stroke-linejoin="round" stroke-miterlimit="2"><path d="M1.603,27.774c-0.221,0.133 -0.309,0.398 0.043,0.751l0.001,0c0.624,0.624 1.47,0.975 2.353,0.975c0.726,-0 1.427,-0.237 2,-0.668c0.573,0.431 1.274,0.668 2,0.668c0.726,-0 1.427,-0.237 2,-0.668c0.573,0.431 1.274,0.668 2,0.668c0.726,-0 1.427,-0.237 2,-0.668c0.573,0.431 1.274,0.668 2,0.668c0.726,-0 1.427,-0.237 2,-0.668c0.573,0.431 1.274,0.668 2,0.668c0.726,-0 1.427,-0.237 2,-0.668c0.573,0.431 1.274,0.668 2,0.668c0.726,-0 1.427,-0.237 2,-0.668c0.573,0.431 1.274,0.668 2,0.668c0.883,-0 1.729,-0.351 2.353,-0.975c0,0 0,0 0.001,-0c0.195,-0.195 0.195,-0.512 -0,-0.707c-0.196,-0.195 -0.512,-0.195 -0.708,-0c0,-0 0,-0 0,0c-0.436,0.437 -1.029,0.682 -1.646,0.682c-0.617,0 -1.21,-0.245 -1.646,-0.682c0.024,0.024 0.049,0.058 0.049,0.058c0,-0 -0.248,-0.205 -0.403,-0.205c-0.155,0 -0.403,0.205 -0.403,0.205c-0,-0 0.025,-0.034 0.049,-0.058c-0.436,0.437 -1.029,0.682 -1.646,0.682c-0.617,0 -1.21,-0.245 -1.646,-0.682c0.024,0.024 0.049,0.058 0.049,0.058c0,-0 -0.248,-0.205 -0.403,-0.205c-0.155,0 -0.403,0.205 -0.403,0.205c-0,-0 0.025,-0.034 0.049,-0.058c-0.436,0.437 -1.029,0.682 -1.646,0.682c-0.617,-0 -1.21,-0.245 -1.646,-0.682c0.024,0.024 0.049,0.058 0.049,0.058c0,-0 -0.248,-0.205 -0.403,-0.205c-0.155,0 -0.403,0.205 -0.403,0.205c-0,-0 0.025,-0.034 0.049,-0.058c-0.436,0.437 -1.029,0.682 -1.646,0.682c-0.617,0 -1.21,-0.245 -1.646,-0.682c0.024,0.024 0.049,0.058 0.049,0.058c0,-0 -0.248,-0.205 -0.403,-0.205c-0.155,0 -0.403,0.205 -0.403,0.205c-0,-0 0.025,-0.034 0.049,-0.058c-0.436,0.437 -1.029,0.682 -1.646,0.682c-0.617,-0 -1.21,-0.245 -1.646,-0.682c0.024,0.024 0.049,0.058 0.049,0.058c0,-0 -0.248,-0.205 -0.403,-0.205c-0.155,0 -0.403,0.205 -0.403,0.205c-0,-0 0.025,-0.034 0.049,-0.058c-0.436,0.437 -1.029,0.682 -1.646,0.682c-0.617,-0 -1.21,-0.245 -1.646,-0.682c0.024,0.024 0.049,0.058 0.049,0.058c0,-0 -0.248,-0.205 -0.403,-0.205c-0.155,0 -0.403,0.205 -0.403,0.205c-0,-0 0.025,-0.034 0.049,-0.058c-0.436,0.437 -1.029,0.682 -1.646,0.682c-0.617,-0 -1.21,-0.245 -1.646,-0.682l-0.001,-0c-0.352,-0.353 -0.617,-0.264 -0.75,-0.044Zm0,-4c-0.221,0.133 -0.309,0.398 0.043,0.751l0.001,0c0.624,0.624 1.47,0.975 2.353,0.975c0.726,-0 1.427,-0.237 2,-0.668c0.573,0.431 1.274,0.668 2,0.668c0.726,-0 1.427,-0.237 2,-0.668c0.573,0.431 1.274,0.668 2,0.668c0.726,-0 1.427,-0.237 2,-0.668c0.573,0.431 1.274,0.668 2,0.668c0.726,-0 1.427,-0.237 2,-0.668c0.573,0.431 1.274,0.668 2,0.668c0.726,-0 1.427,-0.237 2,-0.668c0.573,0.431 1.274,0.668 2,0.668c0.726,-0 1.427,-0.237 2,-0.668c0.573,0.431 1.274,0.668 2,0.668c0.883,-0 1.729,-0.351 2.353,-0.975c0,0 0,0 0.001,-0c0.195,-0.195 0.195,-0.512 -0,-0.707c-0.196,-0.195 -0.512,-0.195 -0.708,-0c0,-0 0,-0 0,0c-0.436,0.437 -1.029,0.682 -1.646,0.682c-0.617,0 -1.21,-0.245 -1.646,-0.682c0.024,0.024 0.049,0.058 0.049,0.058c0,-0 -0.248,-0.205 -0.403,-0.205c-0.155,0 -0.403,0.205 -0.403,0.205c-0,-0 0.025,-0.034 0.049,-0.058c-0.436,0.437 -1.029,0.682 -1.646,0.682c-0.617,0 -1.21,-0.245 -1.646,-0.682c0.024,0.024 0.049,0.058 0.049,0.058c0,-0 -0.248,-0.205 -0.403,-0.205c-0.155,0 -0.403,0.205 -0.403,0.205c-0,-0 0.025,-0.034 0.049,-0.058c-0.436,0.437 -1.029,0.682 -1.646,0.682c-0.617,-0 -1.21,-0.245 -1.646,-0.682c0.024,0.024 0.049,0.058 0.049,0.058c0,-0 -0.248,-0.205 -0.403,-0.205c-0.155,0 -0.403,0.205 -0.403,0.205c-0,-0 0.025,-0.034 0.049,-0.058c-0.436,0.437 -1.029,0.682 -1.646,0.682c-0.617,0 -1.21,-0.245 -1.646,-0.682c0.024,0.024 0.049,0.058 0.049,0.058c0,-0 -0.248,-0.205 -0.403,-0.205c-0.155,0 -0.403,0.205 -0.403,0.205c-0,-0 0.025,-0.034 0.049,-0.058c-0.436,0.437 -1.029,0.682 -1.646,0.682c-0.617,-0 -1.21,-0.245 -1.646,-0.682c0.024,0.024 0.049,0.058 0.049,0.058c0,-0 -0.248,-0.205 -0.403,-0.205c-0.155,0 -0.403,0.205 -0.403,0.205c-0,-0 0.025,-0.034 0.049,-0.058c-0.436,0.437 -1.029,0.682 -1.646,0.682c-0.617,-0 -1.21,-0.245 -1.646,-0.682c0.024,0.024 0.049,0.058 0.049,0.058c0,-0 -0.248,-0.205 -0.403,-0.205c-0.155,0 -0.403,0.205 -0.403,0.205c-0,-0 0.025,-0.034 0.049,-0.058c-0.436,0.437 -1.029,0.682 -1.646,0.682c-0.617,-0 -1.21,-0.245 -1.646,-0.682l-0.001,-0c-0.352,-0.353 -0.617,-0.264 -0.75,-0.044Zm0,-4.171c-0.221,0.133 -0.309,0.398 0.043,0.75l0.001,0.001c0.624,0.624 1.47,0.975 2.353,0.975c0.726,-0 1.427,-0.237 2,-0.669c0.573,0.432 1.274,0.669 2,0.669c0.726,-0 1.427,-0.237 2,-0.669c0.573,0.432 1.274,0.669 2,0.669c0.726,-0 1.427,-0.237 2,-0.669c0.573,0.432 1.274,0.669 2,0.669c0.726,-0 1.427,-0.237 2,-0.669c0.573,0.432 1.274,0.669 2,0.669c0.726,-0 1.427,-0.237 2,-0.669c0.573,0.432 1.274,0.669 2,0.669c0.726,-0 1.427,-0.237 2,-0.669c0.573,0.432 1.274,0.669 2,0.669c0.883,-0 1.729,-0.351 2.353,-0.975c0,-0 0,-0 0.001,-0c0.195,-0.196 0.195,-0.512 -0,-0.708c-0.196,-0.195 -0.512,-0.195 -0.708,0c0,0.001 0,0.001 0,0.001c-0.436,0.436 -1.029,0.682 -1.646,0.682c-0.617,-0 -1.21,-0.246 -1.646,-0.682c0.024,0.024 0.049,0.057 0.049,0.057c0,0 -0.248,-0.204 -0.403,-0.204c-0.155,-0 -0.403,0.204 -0.403,0.204c-0,0 0.025,-0.033 0.049,-0.057c-0.436,0.436 -1.029,0.682 -1.646,0.682c-0.617,-0 -1.21,-0.246 -1.646,-0.682c0.024,0.024 0.049,0.057 0.049,0.057c0,0 -0.248,-0.204 -0.403,-0.204c-0.155,-0 -0.403,0.204 -0.403,0.204c-0,0 0.025,-0.033 0.049,-0.057c-0.436,0.436 -1.029,0.682 -1.646,0.682c-0.617,-0 -1.21,-0.246 -1.646,-0.682c0.024,0.024 0.049,0.057 0.049,0.057c0,0 -0.248,-0.204 -0.403,-0.204c-0.155,-0 -0.403,0.204 -0.403,0.204c-0,0 0.025,-0.033 0.049,-0.057c-0.436,0.436 -1.029,0.682 -1.646,0.682c-0.617,-0 -1.21,-0.246 -1.646,-0.682c0.024,0.024 0.049,0.057 0.049,0.057c0,0 -0.248,-0.204 -0.403,-0.204c-0.155,-0 -0.403,0.204 -0.403,0.204c-0,0 0.025,-0.033 0.049,-0.057c-0.436,0.436 -1.029,0.682 -1.646,0.682c-0.617,-0 -1.21,-0.246 -1.646,-0.682c0.024,0.024 0.049,0.057 0.049,0.057c0,0 -0.248,-0.204 -0.403,-0.204c-0.155,-0 -0.403,0.204 -0.403,0.204c-0,0 0.025,-0.033 0.049,-0.057c-0.436,0.436 -1.029,0.682 -1.646,0.682c-0.617,-0 -1.21,-0.246 -1.646,-0.682c0.024,0.024 0.049,0.057 0.049,0.057c0,0 -0.248,-0.204 -0.403,-0.204c-0.155,-0 -0.403,0.204 -0.403,0.204c-0,0 0.025,-0.033 0.049,-0.057c-0.436,0.436 -1.029,0.682 -1.646,0.682c-0.617,-0 -1.21,-0.246 -1.646,-0.682l-0.001,-0.001c-0.352,-0.352 -0.617,-0.264 -0.75,-0.043Zm0.397,-2.26l28,-0c0.276,-0 0.5,-0.224 0.5,-0.5c-0,-0.276 -0.224,-0.5 -0.5,-0.5l-28,-0c-0.276,-0 -0.5,0.224 -0.5,0.5c-0,0.276 0.224,0.5 0.5,0.5Zm18.468,-7.524l0,4.319c0,0.276 0.224,0.5 0.5,0.5l6.426,-0c0.276,-0 0.5,-0.224 0.5,-0.5l-0,-4.319l1.106,-0c0.202,-0 0.385,-0.122 0.462,-0.309c0.077,-0.187 0.035,-0.402 -0.108,-0.545l-4.819,-4.819c-0.196,-0.195 -0.512,-0.195 -0.707,0l-4.819,4.819c-0.143,0.143 -0.186,0.358 -0.109,0.545c0.078,0.187 0.26,0.309 0.462,0.309l1.106,-0Zm-4.452,1.1l-0,3.081c-0,0.276 0.224,0.5 0.5,0.5c0.276,0 0.5,-0.224 0.5,-0.5l-0,-3.081c0.4,-0.131 0.773,-0.42 1.085,-0.849c0.545,-0.75 0.915,-1.956 0.915,-3.32c-0,-1.364 -0.37,-2.57 -0.915,-3.32c-0.439,-0.604 -0.999,-0.93 -1.585,-0.93c-0.586,0 -1.146,0.326 -1.585,0.93c-0.546,0.75 -0.915,1.956 -0.915,3.32c-0,1.364 0.369,2.57 0.915,3.32c0.312,0.429 0.685,0.718 1.085,0.849Zm-11.516,0l0,3.081c0,0.276 0.224,0.5 0.5,0.5c0.276,-0 0.5,-0.224 0.5,-0.5l0,-3.081c0.4,-0.131 0.773,-0.42 1.085,-0.849c0.546,-0.75 0.915,-1.956 0.915,-3.32c0,-1.364 -0.369,-2.57 -0.915,-3.32c-0.439,-0.604 -0.999,-0.93 -1.585,-0.93c-0.586,0 -1.146,0.326 -1.585,0.93c-0.546,0.75 -0.915,1.956 -0.915,3.32c0,1.364 0.369,2.57 0.915,3.32c0.312,0.429 0.685,0.718 1.085,0.849Zm6,0l0,3.081c-0,0.276 0.224,0.5 0.5,0.5c0.276,0 0.5,-0.224 0.5,-0.5l0,-3.081c0.4,-0.131 0.773,-0.42 1.085,-0.849c0.546,-0.75 0.915,-1.956 0.915,-3.32c0,-1.364 -0.369,-2.57 -0.915,-3.32c-0.439,-0.604 -0.999,-0.93 -1.585,-0.93c-0.586,0 -1.146,0.326 -1.585,0.93c-0.546,0.75 -0.915,1.956 -0.915,3.32c0,1.364 0.369,2.57 0.915,3.32c0.312,0.429 0.685,0.718 1.085,0.849Zm10.968,-1.1l5.426,-0c-0,-0 -0,3.819 -0,3.819c-0,-0 -5.426,-0 -5.426,-0l0,-3.819Zm-16.468,-6.319c0.298,0 0.553,0.211 0.777,0.518c0.447,0.615 0.723,1.613 0.723,2.732c0,1.119 -0.276,2.117 -0.723,2.732c-0.224,0.307 -0.479,0.518 -0.777,0.518c-0.298,0 -0.553,-0.211 -0.777,-0.518c-0.447,-0.615 -0.723,-1.613 -0.723,-2.732c0,-1.119 0.276,-2.117 0.723,-2.732c0.224,-0.307 0.479,-0.518 0.777,-0.518Zm6,0c0.298,0 0.553,0.211 0.777,0.518c0.447,0.615 0.723,1.613 0.723,2.732c0,1.119 -0.276,2.117 -0.723,2.732c-0.224,0.307 -0.479,0.518 -0.777,0.518c-0.298,0 -0.553,-0.211 -0.777,-0.518c-0.447,-0.615 -0.723,-1.613 -0.723,-2.732c0,-1.119 0.276,-2.117 0.723,-2.732c0.224,-0.307 0.479,-0.518 0.777,-0.518Zm5.516,0c0.297,0 0.553,0.211 0.776,0.518c0.448,0.615 0.724,1.613 0.724,2.732c-0,1.119 -0.276,2.117 -0.724,2.732c-0.223,0.307 -0.479,0.518 -0.776,0.518c-0.298,0 -0.554,-0.211 -0.777,-0.518c-0.447,-0.615 -0.723,-1.613 -0.723,-2.732c-0,-1.119 0.276,-2.117 0.723,-2.732c0.223,-0.307 0.479,-0.518 0.777,-0.518Zm10.88,5.319l0.397,-0c-0,-0 -3.612,-3.612 -3.612,-3.612l-3.612,3.612l0.399,-0l6.426,-0l0.002,-0Z"/><text x="0" y="47" fill="#000000" font-size="5px" font-weight="bold" font-family="'Helvetica Neue', Helvetica, Arial-Unicode, Arial, Sans-serif">Created by Firza Alamsyah</text><text x="0" y="52" fill="#000000" font-size="5px" font-weight="bold" font-family="'Helvetica Neue', Helvetica, Arial-Unicode, Arial, Sans-serif">from the Noun Project</text></svg>