<svg xmlns="http://www.w3.org/2000/svg" xmlns:xlink="http://www.w3.org/1999/xlink" version="1.1" x="0px" y="0px" viewBox="0 0 100 125" enable-background="new 0 0 100 100" xml:space="preserve"><g><path d="M82.7239761,30.2215328l9.4100113,6.7913876c1.5647888,1.1283493,0.7557831,3.6085892-1.1602859,3.6085892v0.0106468   H9.0406151c-1.9054213,0-2.842164-2.5228195-1.0219021-3.7150383l40.8228378-29.50741   c0.7238464-0.5215955,1.692524-0.4790163,2.3631477,0.0319343l20.2570686,14.6366119v-8.3561754   c0-1.1070595,0.894165-2.0012236,2.0012283-2.0012236h7.270401c1.0964127,0,1.9905777,0.8941641,1.9905777,2.0012236V30.2215328z    M84.8103638,36.6297073l-5.0988693-3.6831055c-0.5854645-0.3512764-0.9793167-0.9899654-0.9793167-1.7138119V15.7233038   h-3.2786026v10.2509508l0,0c0,1.5754318-1.8309097,2.5760422-3.1508636,1.6180096L50.0018387,11.4866695L15.2039585,36.6297073   H84.8103638z"/><path d="M15.9278059,45.5819893h68.1587143c1.1070557,0,2.0012207,0.894165,2.0012207,1.9905815v43.388237   c0,1.1070633-0.894165,2.0012283-2.0012207,2.0012283c-22.7160263,0-45.4426918,0-68.1587143,0   c-1.1070604,0-2.0012245-0.894165-2.0012245-2.0012283v-43.388237   C13.9265814,46.4761543,14.8207455,45.5819893,15.9278059,45.5819893z M42.7420769,88.9595871V65.7964859   c0-1.0964203,0.894165-1.9905815,1.9905815-1.9905815h10.1870804c1.0964165,0,1.9905777,0.8941612,1.9905777,1.9905815v23.1631012   H82.085289V49.5737953H17.9290295v39.3857918H42.7420769z M52.9185143,88.9595871V67.7977066h-6.1846313v21.1618805H52.9185143z"/><path d="M64.595871,63.5610733l3.8427734-5.8652916c0.7877197-1.2028618,2.5653992-1.2135086,3.3637619,0.0319366   c1.2135086,1.9054184,4.2153397,5.7801285,4.162117,7.1107292l0.0319366,9.8464508   c0,1.0964127-0.894165,1.9905777-1.9905777,1.9905777v0.010643h-7.7919998c-1.0964203,0-1.9905777-0.894165-1.9905777-2.0012207   v-9.9422531C64.2233047,64.2955627,64.3616867,63.8910599,64.595871,63.5610733z M70.1098785,62.432724l-1.8947754,2.8953857   v7.3662109h3.7895508l-0.010643-7.3874969L70.1098785,62.432724z"/><path d="M35.4290962,64.7426453v9.9422531c0,1.1070557-0.894165,2.0012207-1.9905815,2.0012207h-7.7919998   c-1.1070595,0-2.0012226-0.894165-2.0012226-2.0012207v-9.9422531c0-1.1177025,3.236021-5.5353012,4.2259884-7.0468636   c0.7877159-1.2028618,2.5653992-1.2135086,3.36376,0.0319366C32.2675858,59.3563728,35.4290962,63.5930061,35.4290962,64.7426453z    M31.4372921,72.6943207v-7.3662109l-1.8947773-2.8953857l-1.8947754,2.8953857v7.3662109H31.4372921z"/></g><text x="0" y="115" fill="#000000" font-size="5px" font-weight="bold" font-family="'Helvetica Neue', Helvetica, Arial-Unicode, Arial, Sans-serif">Created by iconesia</text><text x="0" y="120" fill="#000000" font-size="5px" font-weight="bold" font-family="'Helvetica Neue', Helvetica, Arial-Unicode, Arial, Sans-serif">from the Noun Project</text></svg>